Sprint_08100001_forces_filt15Hz.mot
version=1
nRows=28
nColumns=19
inDegrees=yes
endheader
time	R_ground_force_vx	R_ground_force_vy	R_ground_force_vz	R_ground_force_px	R_ground_force_py	R_ground_force_pz	R_ground_torque_x	R_ground_torque_y	R_ground_torque_z	L_ground_force_vx	L_ground_force_vy	L_ground_force_vz	L_ground_force_px	L_ground_force_py	L_ground_force_pz	L_ground_torque_x	L_ground_torque_y	L_ground_torque_z	
0.000000	  0.000000	  0.000000	  0.000000	  0.426822	  0.000000	 -0.269988	  0.000000	  0.000000	  0.000000	-95.323951	157.592076	-26.167552	  1.083836	  0.000000	 -0.465847	  0.000000	-30.301189	  0.000000
0.000500	  0.000000	  0.000000	  0.000000	  0.429157	 -0.000000	 -0.269940	  0.000000	  0.000000	  0.000000	-96.711715	174.583445	-21.919092	  1.075813	  0.000000	 -0.462183	  0.000000	-27.964104	  0.000000
0.001000	  0.000000	  0.000000	  0.000000	  0.431492	 -0.000000	 -0.269891	  0.000000	  0.000000	  0.000000	-98.232434	192.344784	-17.589210	  1.068754	  0.000000	 -0.458885	  0.000000	-25.745535	  0.000000
0.001500	  0.000000	  0.000000	  0.000000	  0.433828	 -0.000000	 -0.269842	  0.000000	  0.000000	  0.000000	-99.890411	210.888359	-13.180813	  1.062491	  0.000000	 -0.455892	  0.000000	-23.630144	  0.000000
0.002000	  0.000000	  0.000000	  0.000000	  0.436163	 -0.000000	 -0.269793	  0.000000	  0.000000	  0.000000	-101.689469	230.225490	 -8.696798	  1.056892	  0.000000	 -0.453152	  0.000000	-21.606573	  0.000000
0.002500	  0.000000	  0.000000	  0.000000	  0.438498	  0.000000	 -0.269744	  0.000000	  0.000000	  0.000000	-103.632885	250.366449	 -4.140020	  1.051850	  0.000000	 -0.450627	  0.000000	-19.666397	  0.000000
0.003000	  0.000000	  0.000000	  0.000000	  0.440833	  0.000000	 -0.269695	  0.000000	  0.000000	  0.000000	-105.723321	271.320373	  0.486751	  1.047280	  0.000000	 -0.448285	  0.000000	-17.803379	  0.000000
0.003500	  0.000000	  0.000000	  0.000000	  0.443169	  0.000000	 -0.269647	  0.000000	  0.000000	  0.000000	-107.962770	293.095162	  5.180873	  1.043115	  0.000000	 -0.446098	  0.000000	-16.012935	  0.000000
0.004000	  0.000000	  0.000000	  0.000000	  0.445504	  0.000000	 -0.269598	  0.000000	  0.000000	  0.000000	-110.352518	315.697372	  9.939886	  1.039295	  0.000000	 -0.444046	  0.000000	-14.291733	  0.000000
0.004500	  0.000000	  0.000000	  0.000000	  0.447839	  0.000000	 -0.269549	  0.000000	  0.000000	  0.000000	-112.893113	339.132114	 14.761554	  1.035774	  0.000000	 -0.442111	  0.000000	-12.637388	  0.000000
0.005000	  0.000000	  0.000000	  0.000000	  0.450175	  0.000000	 -0.269500	  0.000000	  0.000000	  0.000000	-115.584335	363.402936	 19.643902	  1.032513	  0.000000	 -0.440276	  0.000000	-11.048235	  0.000000
0.005500	  0.000000	  0.000000	  0.000000	  0.452496	  0.000000	 -0.269400	  0.000000	  0.000000	  0.000000	-118.425173	388.511712	 24.585225	  1.029477	  0.000000	 -0.438530	  0.000000	 -9.523148	  0.000000
0.006000	  0.000000	  0.000000	  0.000000	  0.454817	  0.000000	 -0.269299	  0.000000	  0.000000	  0.000000	-121.413791	414.458520	 29.584087	  1.026637	  0.000000	 -0.436862	  0.000000	 -8.061410	  0.000000
0.006500	  0.000000	  0.000000	  0.000000	  0.457138	  0.000000	 -0.269198	  0.000000	  0.000000	  0.000000	-124.547504	441.241519	 34.639301	  1.023969	  0.000000	 -0.435261	  0.000000	 -6.662607	  0.000000
0.007000	  0.000000	  0.000000	  0.000000	  0.459460	  0.000000	 -0.269098	  0.000000	  0.000000	  0.000000	-127.822740	468.856820	 39.749907	  1.021453	  0.000000	 -0.433721	  0.000000	 -5.326553	  0.000000
0.007500	  0.000000	  0.000000	  0.000000	  0.461781	  0.000000	 -0.268997	  0.000000	  0.000000	  0.000000	-131.235005	497.298355	 44.915131	  1.019069	  0.000000	 -0.432233	  0.000000	 -4.053219	  0.000000
0.008000	  0.000000	  0.000000	  0.000000	  0.464102	  0.000000	 -0.268897	  0.000000	  0.000000	  0.000000	-134.778854	526.557740	 50.134344	  1.016802	  0.000000	 -0.430793	  0.000000	 -2.842683	  0.000000
0.008500	  0.000000	  0.000000	  0.000000	  0.466424	  0.000000	 -0.268796	  0.000000	  0.000000	  0.000000	-138.447866	556.624135	 55.407010	  1.014638	  0.000000	 -0.429394	  0.000000	 -1.695086	  0.000000
0.009000	  0.000000	  0.000000	  0.000000	  0.468745	  0.000000	 -0.268696	  0.000000	  0.000000	  0.000000	-142.234636	587.484100	 60.732616	  1.012565	  0.000000	 -0.428033	  0.000000	 -0.610605	  0.000000
0.009500	  0.000000	  0.000000	  0.000000	  0.471066	  0.000000	 -0.268595	  0.000000	  0.000000	  0.000000	-146.130792	619.121443	 66.110607	  1.010574	  0.000000	 -0.426704	  0.000000	  0.410564	  0.000000
0.010000	  0.000000	  0.000000	  0.000000	  0.473387	  0.000000	 -0.268495	  0.000000	  0.000000	  0.000000	-150.127024	651.517075	 71.540306	  1.008655	  0.000000	 -0.425405	  0.000000	  1.368208	  0.000000
0.010500	  0.000000	  0.000000	  0.000000	  0.475659	  0.000000	 -0.268405	  0.000000	  0.000000	  0.000000	-154.213146	684.648955	 77.020832	  1.006800	  0.000000	 -0.424132	  0.000000	  2.262082	  0.000000
0.011000	  0.000000	  0.000000	  0.000000	  0.477931	  0.000000	 -0.268315	  0.000000	  0.000000	  0.000000	-158.378142	718.492361	 82.551006	  1.005002	  0.000000	 -0.422884	  0.000000	  3.091906	  0.000000
0.011500	  0.000000	  0.000000	  0.000000	  0.480202	  0.000000	 -0.268225	  0.000000	  0.000000	  0.000000	-162.610240	753.020426	 88.129238	  1.003255	  0.000000	 -0.421656	  0.000000	  3.857351	  0.000000
0.012000	  0.000000	  0.000000	  0.000000	  0.482474	  0.000000	 -0.268135	  0.000000	  0.000000	  0.000000	-166.896980	788.204612	 93.753397	  1.001553	  0.000000	 -0.420448	  0.000000	  4.558036	  0.000000
0.012500	  0.000000	  0.000000	  0.000000	  0.484746	  0.000000	 -0.268045	  0.000000	  0.000000	  0.000000	-171.225298	824.015051	 99.420657	  0.999891	  0.000000	 -0.419258	  0.000000	  5.193529	  0.000000
0.013000	  0.000000	  0.000000	  0.000000	  0.487017	  0.000000	 -0.267955	  0.000000	  0.000000	  0.000000	-175.581627	860.420878	105.127351	  0.998265	  0.000000	 -0.418084	  0.000000	  5.763333	  0.000000
0.013500	  0.000000	  0.000000	  0.000000	  0.489289	  0.000000	 -0.267865	  0.000000	  0.000000	  0.000000	-179.952011	897.390634	110.868824	  0.996672	  0.000000	 -0.416926	  0.000000	  6.266879	  0.000000
